<?xml version="1.0" encoding="utf-8"?>
<!-- Generator: Adobe Illustrator 26.0.1, SVG Export Plug-In . SVG Version: 6.00 Build 0)  -->
<svg version="1.1" id="Layer_1" xmlns="http://www.w3.org/2000/svg" xmlns:xlink="http://www.w3.org/1999/xlink" x="0px" y="0px"
	 viewBox="0 0 636.3 641.9" style="enable-background:new 0 0 636.3 641.9;" xml:space="preserve">
<path style="fill:#3B3B3B;" d="M91.6,633.3c-8.7,0-17.3,0-26,0c-4.1-1.6-8.6-2.7-12.3-5c-10.1-6.4-13.5-16.3-13.5-27.8
	c0.1-154.2,0-308.4,0.1-462.5c0-3.6-0.7-6.2-3.7-8.6c-14.8-11.3-22.4-26.6-24.8-45C5.6,41.1,44.3,0.9,91.4,9.8
	c39.4,7.4,63,46.2,52.8,85c-0.5,2-1,4-1.6,6.4c1.5-0.3,2.1-0.4,2.7-0.6c1.8-0.5,3.5-1,5.3-1.6c42.8-13.8,86.3-16.4,130-5.5
	c28,7,55.8,15.5,83.2,24.8c43.2,14.7,86.5,14.8,129.5,1.1c25.2-8,49.5-18.6,74.3-27.8c6.2-2.3,12.7-4.8,19.1-5
	c17.1-0.5,38.8,12.9,38.8,40.8c-0.1,97.7,0,195.4-0.1,293c0,14.7-6.1,26.4-18.4,34.6c-36.7,24.5-75.7,43.1-120.4,47.5
	c-23.4,2.3-46.8,2.8-69.6-2.5c-27.3-6.4-54.7-13.5-81.1-22.9c-39.3-13.8-79.1-18.7-120.4-14.1c-31.1,3.5-61.3,10.6-90.3,22.4
	c-7.7,3.1-7.7,3.1-7.7,11.6c0,35.5,0,71,0,106.5c0,12.3-5.9,21.3-16.9,26.7C97.8,631.8,94.6,632.3,91.6,633.3z"/>
</svg>
